<?xml version="1.0" encoding="utf-8"?>
<!-- Generator: Adobe Illustrator 27.3.1, SVG Export Plug-In . SVG Version: 6.00 Build 0)  -->
<svg version="1.1" id="Layer_2_00000067934082920590158420000015579743672836949377_"
	 xmlns="http://www.w3.org/2000/svg" xmlns:xlink="http://www.w3.org/1999/xlink" x="0px" y="0px" viewBox="0 0 376 164.7"
	 style="enable-background:new 0 0 376 164.7;" xml:space="preserve">
<style type="text/css">
	.st0{fill:url(#SVGID_1_);}
	.st1{fill:url(#SVGID_00000145768035111340118580000002604081756017416879_);}
	.st2{fill:#1B2739;}
	.st3{enable-background:new    ;}
	.st4{fill:#696969;}
</style>
<g id="TEXTS">
	<g>
		<g>
			<g>
				
					<linearGradient id="SVGID_1_" gradientUnits="userSpaceOnUse" x1="20.4608" y1="132.8961" x2="99.1908" y2="150.1061" gradientTransform="matrix(1 0 0 -1 0 166)">
					<stop  offset="0" style="stop-color:#5573FF"/>
					<stop  offset="1" style="stop-color:#00D472"/>
				</linearGradient>
				<path class="st0" d="M39.6,16.2c-6.9,0.6-11.9,6.8-11.2,13.7c0.7,6.9,6.8,11.9,13.7,11.3c7-0.7,12-6.9,11.3-13.7
					c-0.7-6.4-6-11.3-12.5-11.3C40.5,16.1,40,16.1,39.6,16.2"/>
				
					<linearGradient id="SVGID_00000108278956932367273640000000853980679846138796_" gradientUnits="userSpaceOnUse" x1="-19.2501" y1="81.9549" x2="154.1899" y2="85.7449" gradientTransform="matrix(1 0 0 -1 0 166)">
					<stop  offset="0" style="stop-color:#5573FF"/>
					<stop  offset="1" style="stop-color:#00D472"/>
				</linearGradient>
				<path style="fill:url(#SVGID_00000108278956932367273640000000853980679846138796_);" d="M0,32c36.2,42.1,32.7,82.1,30.2,132.7
					C55.9,125,79.4,66.5,84.6,0C69.8,45.5,46.4,61.4,0,32"/>
			</g>
			<g>
				<path d="M51.3,43.1c6.9-2.5,12.9-7.4,18.2-15.1H55.3c0.2,3.6-1,7.1-3.3,9.9c-2.5,3-6,4.9-9.9,5.3c-0.4,0-0.9,0.1-1.3,0.1
					c-7.4,0-13.8-5.7-14.6-13.1c-0.1-0.7-0.1-1.4,0-2.1H12.2c-3.3,0-6.2,1.8-7.8,4.4C23.7,44,39,47.5,51.3,43.1L51.3,43.1z"/>
				<path d="M3.1,39v106.8c0,5.1,4.1,9.2,9.2,9.2h16.4C30.9,111.2,31.7,75.7,3.1,39z"/>
				<path d="M38.5,155h33.8c5.1,0,9.2-4.1,9.2-9.2V38.2C73.8,79.8,58.8,120.5,38.5,155L38.5,155z"/>
			</g>
		</g>
		<g>
			<path class="st2" d="M103.5,59.8h9.1v62.6h-9.1V59.8z M130,59.8v7.3h-21.7v-7.3C108.3,59.9,130,59.9,130,59.8z M130.7,115.1v7.3
				h-22.4v-7.3H130.7z M127,86.4v7.3h-18.5v-7.3H127z"/>
			<path class="st2" d="M146,122.4h-9V73.6h9V122.4z M164.8,122.4h-9V83.8c0-1.2-0.2-2-0.6-2.3c-0.4-0.4-1.2-0.6-2.4-0.6h-3.5
				c-1.1,0-2,0.3-2.5,0.8c-0.5,0.5-0.8,1.4-0.8,2.7v3.2h-0.4v-7.2c0-2.4,0.6-4.1,1.8-5.2s2.8-1.6,4.8-1.6h3.6c3.1,0,5.3,0.8,6.8,2.2
				s2.2,3.7,2.2,6.7L164.8,122.4L164.8,122.4z M183.6,122.4h-9.1V83.8c0-1.2-0.2-2-0.6-2.3c-0.4-0.4-1.1-0.6-2.4-0.6H168
				c-1.1,0-1.9,0.3-2.4,0.8c-0.5,0.5-0.8,1.4-0.8,2.7v3.2H164l-0.2-7.1c-0.1-2.4,0.6-4.2,1.9-5.2s3.1-1.7,5.2-1.7h3.5
				c3.1,0,5.4,0.8,6.9,2.2s2.2,3.7,2.2,6.7L183.6,122.4L183.6,122.4z"/>
			<path class="st2" d="M192.7,59.8h9v62.6h-9V59.8z M213.5,88.1v-18c0-1.2-0.2-2-0.6-2.3c-0.4-0.4-1.2-0.6-2.4-0.6h-16.6v-7.3h19.3
				c3.3,0,5.6,0.8,7.1,2.2s2.2,3.7,2.2,6.5v20.8c0,2.9-0.8,5.1-2.2,6.6s-3.9,2.2-7.1,2.2h-16.1v-7.2h13.4c1.3,0,2.1-0.2,2.4-0.6
				S213.5,89.3,213.5,88.1L213.5,88.1z"/>
			<path class="st2" d="M238.2,83.8v22.8h-8.9v-24c0-2.9,0.7-5.2,2.2-6.7c1.5-1.5,3.8-2.2,7-2.2h5.7v7.1h-3c-1.2,0-2,0.2-2.4,0.6
				S238.2,82.5,238.2,83.8z M238.2,101.7v10.7c0,1.2,0.2,2,0.6,2.4c0.4,0.4,1.2,0.6,2.4,0.6h2.7v7.1h-5.4c-3.2,0-5.5-0.8-7-2.2
				c-1.5-1.5-2.2-3.7-2.2-6.6v-12C229.3,101.6,238.2,101.6,238.2,101.7z M249.6,112.3v-10.1h8.9v11.4c0,2.9-0.7,5.1-2.2,6.6
				s-3.8,2.2-7.1,2.2h-6.1v-7.1h3.5c1.3,0,2.1-0.2,2.4-0.6S249.6,113.6,249.6,112.3L249.6,112.3z M249.6,106.4V83.8
				c0-1.3-0.2-2.1-0.6-2.4c-0.4-0.4-1.2-0.6-2.4-0.6h-3v-7.1h5.6c3.3,0,5.6,0.8,7.1,2.2c1.5,1.5,2.2,3.7,2.2,6.7v23.9L249.6,106.4
				L249.6,106.4z"/>
			<path class="st2" d="M307.7,73.7h8.5l-9,48.8h-11.9l-5.8-36.9l-5.8,36.9h-11.9l-8.9-48.8h8.5l6.5,41.1l6.3-41.1h10.7l6.1,41.1
				L307.7,73.7L307.7,73.7z"/>
			<path class="st2" d="M329.7,83.7v28.8c0,1.1,0.2,1.9,0.6,2.3s1.2,0.6,2.4,0.6h2.5v7.1h-5c-3.2,0-5.5-0.8-7-2.2s-2.2-3.7-2.2-6.6
				V82.5c0-2.9,0.8-5.2,2.2-6.7s3.9-2.2,7-2.2h5.5v7.1h-3c-1.2,0-2,0.2-2.4,0.6S329.7,82.4,329.7,83.7z M349.4,94.2v6.6h-25.3v-6.6
				H349.4z M340.5,99.6V83.7c0-1.2-0.2-2-0.5-2.3c-0.4-0.4-1.1-0.6-2.4-0.6h-3.2v-7.1h5.6c3.3,0,5.6,0.8,7.1,2.2s2.2,3.7,2.2,6.7v17
				H340.5z M340.3,112.4v-4h8.8v5.3c0,2.9-0.7,5.1-2.2,6.6s-3.8,2.2-7.1,2.2h-5.4v-7.1h2.9c1.3,0,2.1-0.2,2.5-0.6
				C340.1,114.4,340.3,113.6,340.3,112.4L340.3,112.4z"/>
			<path class="st2" d="M366.1,122.4h-9V73.6h9V122.4z M376,73.5v7.9h-3.6c-4.2,0-6.3,2.4-6.3,7.3v2.1h-0.4v-8.5
				c0-1.4,0.3-2.8,1-4.2s1.6-2.5,2.8-3.3c1.2-0.9,2.8-1.3,4.5-1.3H376z"/>
		</g>
		<g class="st3">
			<path class="st4" d="M108.6,154.5c-1.7,0-3-0.5-3.9-1.4c-0.9-0.9-1.4-2.3-1.4-4.2v-7.2h1.8v7.1c0,1.4,0.3,2.4,0.9,3.1
				c0.6,0.6,1.5,1,2.6,1c1.1,0,2-0.3,2.6-1c0.6-0.6,0.9-1.7,0.9-3.1v-7.1h1.7v7.2c0,1.8-0.5,3.2-1.4,4.2
				C111.6,154,110.3,154.5,108.6,154.5z"/>
			<path class="st4" d="M117.6,154.3v-12.6h1.5l8.3,10.3h-0.8v-10.3h1.8v12.6H127l-8.3-10.3h0.8v10.3H117.6z"/>
			<path class="st4" d="M132.2,154.3v-12.6h1.8v11h6.8v1.6H132.2z"/>
			<path class="st4" d="M144.7,152.8h7.3v1.6h-9.1v-12.6h8.9v1.6h-7.1V152.8z M144.6,147.2h6.5v1.5h-6.5V147.2z"/>
			<path class="st4" d="M153.1,154.3l5.7-12.6h1.8l5.7,12.6h-1.9l-5.1-11.6h0.7l-5.1,11.6H153.1z M155.5,151.2l0.5-1.4h7.1l0.5,1.4
				H155.5z"/>
			<path class="st4" d="M171.8,154.5c-1,0-1.9-0.1-2.8-0.4c-0.9-0.3-1.6-0.7-2.1-1.1l0.7-1.4c0.5,0.4,1.1,0.8,1.8,1
				c0.7,0.3,1.5,0.4,2.3,0.4c0.7,0,1.3-0.1,1.8-0.3c0.5-0.2,0.8-0.4,1-0.7s0.3-0.6,0.3-1c0-0.4-0.1-0.8-0.4-1
				c-0.3-0.3-0.6-0.5-1.1-0.6c-0.4-0.2-0.9-0.3-1.5-0.4s-1.1-0.3-1.6-0.4c-0.5-0.2-1-0.4-1.5-0.6c-0.4-0.3-0.8-0.6-1.1-1
				c-0.3-0.4-0.4-1-0.4-1.6c0-0.6,0.2-1.2,0.5-1.8c0.3-0.5,0.9-1,1.6-1.3c0.7-0.3,1.6-0.5,2.7-0.5c0.7,0,1.5,0.1,2.2,0.3
				c0.7,0.2,1.3,0.5,1.9,0.8l-0.6,1.4c-0.5-0.4-1.1-0.6-1.7-0.8s-1.2-0.2-1.7-0.2c-0.7,0-1.3,0.1-1.7,0.3c-0.5,0.2-0.8,0.4-1,0.7
				s-0.3,0.6-0.3,1c0,0.4,0.1,0.8,0.4,1.1c0.3,0.3,0.6,0.5,1.1,0.6c0.4,0.2,0.9,0.3,1.5,0.4s1.1,0.3,1.6,0.4s1,0.4,1.5,0.6
				s0.8,0.6,1.1,1s0.4,1,0.4,1.6c0,0.6-0.2,1.2-0.5,1.8s-0.9,1-1.6,1.3C173.9,154.3,172.9,154.5,171.8,154.5z"/>
			<path class="st4" d="M181.1,154.3h-1.8v-12.6h1.8V154.3z M188.5,148.7H181v-1.6h7.6V148.7z M188.4,141.8h1.8v12.6h-1.8V141.8z"/>
		</g>
		<g class="st3">
			<path class="st4" d="M201.9,154.3v-4.8l0.4,1.1l-5.4-8.9h1.9l4.6,7.5h-1l4.6-7.5h1.8l-5.4,8.9l0.4-1.1v4.8H201.9z"/>
		</g>
		<g class="st3">
			<path class="st4" d="M215.6,154.5c-1,0-1.9-0.2-2.7-0.5s-1.5-0.8-2.1-1.4c-0.6-0.6-1.1-1.3-1.4-2c-0.3-0.8-0.5-1.6-0.5-2.6
				s0.2-1.8,0.5-2.6c0.3-0.8,0.8-1.5,1.4-2c0.6-0.6,1.3-1,2.1-1.4c0.8-0.3,1.7-0.5,2.7-0.5c1,0,1.8,0.2,2.7,0.5
				c0.8,0.3,1.5,0.8,2.1,1.3c0.6,0.6,1.1,1.3,1.4,2c0.3,0.8,0.5,1.6,0.5,2.6c0,0.9-0.2,1.8-0.5,2.6c-0.3,0.8-0.8,1.5-1.4,2
				c-0.6,0.6-1.3,1-2.1,1.3C217.4,154.3,216.6,154.5,215.6,154.5z M215.6,152.9c0.7,0,1.3-0.1,1.9-0.4c0.6-0.2,1.1-0.6,1.5-1
				c0.4-0.4,0.8-1,1-1.5s0.4-1.2,0.4-1.9s-0.1-1.3-0.4-1.9s-0.6-1.1-1-1.5c-0.4-0.4-1-0.8-1.5-1c-0.6-0.2-1.2-0.4-1.9-0.4
				c-0.7,0-1.4,0.1-2,0.4c-0.6,0.2-1.1,0.6-1.6,1c-0.4,0.4-0.8,1-1,1.5s-0.4,1.2-0.4,1.9s0.1,1.3,0.4,1.9s0.6,1.1,1,1.5
				c0.4,0.4,1,0.8,1.6,1C214.2,152.8,214.9,152.9,215.6,152.9z"/>
			<path class="st4" d="M230.2,154.5c-1.7,0-3-0.5-3.9-1.4c-0.9-0.9-1.4-2.3-1.4-4.2v-7.2h1.8v7.1c0,1.4,0.3,2.4,0.9,3.1
				c0.6,0.6,1.5,1,2.6,1c1.1,0,2-0.3,2.6-1c0.6-0.6,0.9-1.7,0.9-3.1v-7.1h1.7v7.2c0,1.8-0.5,3.2-1.4,4.2
				C233.2,154,231.9,154.5,230.2,154.5z"/>
			<path class="st4" d="M239.3,154.3v-12.6h4.9c1.1,0,2,0.2,2.8,0.5c0.8,0.3,1.4,0.9,1.8,1.5c0.4,0.7,0.6,1.4,0.6,2.4
				s-0.2,1.7-0.6,2.3c-0.4,0.7-1,1.2-1.8,1.5c-0.8,0.3-1.7,0.5-2.8,0.5h-3.9l0.8-0.8v4.7H239.3z M241.1,149.9l-0.8-0.9h3.9
				c1.2,0,2-0.2,2.6-0.7c0.6-0.5,0.9-1.2,0.9-2.1s-0.3-1.6-0.9-2.1s-1.5-0.7-2.6-0.7h-3.9l0.8-0.9V149.9z M247.7,154.3l-3.2-4.6h1.9
				l3.2,4.6H247.7z"/>
			<path class="st4" d="M257.2,154.3v-12.6h4.9c1.1,0,2,0.2,2.8,0.5c0.8,0.3,1.4,0.9,1.8,1.5c0.4,0.7,0.6,1.4,0.6,2.4
				s-0.2,1.7-0.6,2.3c-0.4,0.7-1,1.2-1.8,1.5c-0.8,0.4-1.7,0.5-2.8,0.5h-3.9l0.8-0.8v4.7H257.2z M259,149.9l-0.8-0.9h3.9
				c1.2,0,2-0.2,2.6-0.7c0.6-0.5,0.9-1.2,0.9-2.1s-0.3-1.6-0.9-2.1c-0.6-0.5-1.5-0.7-2.6-0.7h-3.9l0.8-0.9V149.9z"/>
		</g>
		<g class="st3">
			<path class="st4" d="M275.9,154.5c-1,0-1.9-0.2-2.7-0.5s-1.5-0.8-2.1-1.4c-0.6-0.6-1.1-1.3-1.4-2c-0.3-0.8-0.5-1.6-0.5-2.6
				s0.2-1.8,0.5-2.6c0.3-0.8,0.8-1.5,1.4-2c0.6-0.6,1.3-1,2.1-1.4c0.8-0.3,1.7-0.5,2.7-0.5c1,0,1.8,0.2,2.7,0.5
				c0.8,0.3,1.5,0.8,2.1,1.3c0.6,0.6,1.1,1.3,1.4,2c0.3,0.8,0.5,1.6,0.5,2.6c0,0.9-0.2,1.8-0.5,2.6c-0.3,0.8-0.8,1.5-1.4,2
				c-0.6,0.6-1.3,1-2.1,1.3C277.7,154.3,276.8,154.5,275.9,154.5z M275.9,152.9c0.7,0,1.3-0.1,1.9-0.4c0.6-0.2,1.1-0.6,1.5-1
				c0.4-0.4,0.8-1,1-1.5s0.4-1.2,0.4-1.9s-0.1-1.3-0.4-1.9s-0.6-1.1-1-1.5c-0.4-0.4-1-0.8-1.5-1c-0.6-0.2-1.2-0.4-1.9-0.4
				c-0.7,0-1.4,0.1-2,0.4c-0.6,0.2-1.1,0.6-1.6,1c-0.4,0.4-0.8,1-1,1.5s-0.4,1.2-0.4,1.9s0.1,1.3,0.4,1.9s0.6,1.1,1,1.5
				c0.4,0.4,1,0.8,1.6,1C274.5,152.8,275.2,152.9,275.9,152.9z"/>
		</g>
		<g class="st3">
			<path class="st4" d="M287.6,154.3v-11h-4.3v-1.6h10.4v1.6h-4.3v11H287.6z"/>
			<path class="st4" d="M297.5,152.8h7.3v1.6h-9.1v-12.6h8.9v1.6h-7.1V152.8z M297.3,147.2h6.5v1.5h-6.5V147.2z"/>
			<path class="st4" d="M307.8,154.3v-12.6h1.5l8.3,10.3h-0.8v-10.3h1.8v12.6h-1.5l-8.3-10.3h0.8v10.3H307.8z"/>
			<path class="st4" d="M324.9,154.3v-11h-4.3v-1.6H331v1.6h-4.3v11H324.9z"/>
			<path class="st4" d="M332.9,154.3v-12.6h1.8v12.6H332.9z"/>
			<path class="st4" d="M336.6,154.3l5.7-12.6h1.8l5.7,12.6h-1.9l-5.1-11.6h0.7l-5.1,11.6H336.6z M339,151.2l0.5-1.4h7.1l0.5,1.4
				H339z"/>
			<path class="st4" d="M351.7,154.3v-12.6h1.8v11h6.8v1.6H351.7z"/>
		</g>
	</g>
</g>
</svg>
